<svg xmlns="http://www.w3.org/2000/svg" width="23.086" height="23.086" viewBox="0 0 23.086 23.086"><defs><style>.a{fill:#0c2352;}</style></defs><path class="a" d="M27.674,5.862V26.4A1.274,1.274,0,0,1,26.4,27.674H20.517v-8.94h3l.449-3.484h-3.45V13.025c0-1.009.28-1.7,1.727-1.7h1.845V8.212A24.664,24.664,0,0,0,21.4,8.075c-2.66,0-4.481,1.624-4.481,4.606V15.25H13.911v3.484h3.009v8.94H5.862A1.274,1.274,0,0,1,4.588,26.4V5.862A1.274,1.274,0,0,1,5.862,4.588H26.4A1.274,1.274,0,0,1,27.674,5.862Z" transform="translate(-4.588 -4.588)"/></svg>