<svg xmlns="http://www.w3.org/2000/svg" width="23.301" height="23.301" viewBox="0 0 23.301 23.301"><defs><style>.a{fill:#0c2352;}</style></defs><g transform="translate(-4.079 -4.079)"><path class="a" d="M15.73,6.178c3.111,0,3.479.012,4.708.068a6.449,6.449,0,0,1,2.163.4,3.858,3.858,0,0,1,2.211,2.211,6.448,6.448,0,0,1,.4,2.163c.056,1.229.068,1.6.068,4.708s-.012,3.479-.068,4.708a6.449,6.449,0,0,1-.4,2.163A3.858,3.858,0,0,1,22.6,24.812a6.449,6.449,0,0,1-2.163.4c-1.228.056-1.6.068-4.708.068s-3.479-.012-4.708-.068a6.448,6.448,0,0,1-2.163-.4A3.858,3.858,0,0,1,6.647,22.6a6.448,6.448,0,0,1-.4-2.163c-.056-1.229-.068-1.6-.068-4.708s.012-3.479.068-4.708a6.448,6.448,0,0,1,.4-2.163A3.858,3.858,0,0,1,8.858,6.647a6.448,6.448,0,0,1,2.163-.4c1.229-.056,1.6-.068,4.708-.068m0-2.1c-3.164,0-3.561.013-4.8.07A8.552,8.552,0,0,0,8.1,4.691,5.958,5.958,0,0,0,4.691,8.1a8.552,8.552,0,0,0-.542,2.828c-.057,1.243-.07,1.639-.07,4.8s.013,3.561.07,4.8a8.552,8.552,0,0,0,.542,2.828A5.958,5.958,0,0,0,8.1,26.768a8.552,8.552,0,0,0,2.828.542c1.243.057,1.639.07,4.8.07s3.561-.013,4.8-.07a8.552,8.552,0,0,0,2.828-.542,5.958,5.958,0,0,0,3.407-3.407,8.552,8.552,0,0,0,.542-2.828c.057-1.243.07-1.639.07-4.8s-.013-3.561-.07-4.8A8.552,8.552,0,0,0,26.768,8.1a5.958,5.958,0,0,0-3.407-3.407,8.552,8.552,0,0,0-2.828-.542c-1.243-.057-1.639-.07-4.8-.07Z"/><path class="a" d="M132.618,126.635a5.983,5.983,0,1,0,5.983,5.983A5.983,5.983,0,0,0,132.618,126.635Zm0,9.866a3.884,3.884,0,1,1,3.884-3.883A3.884,3.884,0,0,1,132.618,136.5Z" transform="translate(-116.888 -116.888)"/><circle class="a" cx="1.398" cy="1.398" r="1.398" transform="translate(20.551 8.112)"/></g></svg>