<svg xmlns="http://www.w3.org/2000/svg" width="23" height="23" viewBox="0 0 23 23"><defs><style>.a{fill:#0c2352;}</style></defs><path class="a" d="M21.3,5H1.7A1.675,1.675,0,0,0,0,6.648V26.353A1.674,1.674,0,0,0,1.7,28H21.3A1.674,1.674,0,0,0,23,26.353V6.648A1.675,1.675,0,0,0,21.3,5ZM3.548,24.248V13.893H6.989V24.248ZM5.269,12.48H5.247A1.794,1.794,0,1,1,5.292,8.9a1.795,1.795,0,1,1-.023,3.578ZM19.4,24.248H15.959V18.709c0-1.392-.5-2.342-1.743-2.342a1.884,1.884,0,0,0-1.766,1.259,2.357,2.357,0,0,0-.113.84v5.782H8.894s.045-9.383,0-10.355h3.442v1.466a3.418,3.418,0,0,1,3.1-1.709c2.264,0,3.962,1.48,3.962,4.66Z" transform="translate(0 -5)"/></svg>