<svg xmlns="http://www.w3.org/2000/svg" width="198.228" height="28.529" viewBox="0 0 198.228 28.529"><defs><style>.a{fill:#0c2352;}</style></defs><path class="a" d="M29.847,44.911V30.449a2.2,2.2,0,0,0-2.164-2.459H26.7c-1.426,0-1.328.147-2.361,1.131L21.78,31.482V44.911H18.239V30.449a2.2,2.2,0,0,0-2.116-2.459h-.54c-.837,0-.885.049-1.574.639L9.68,32.565V44.911H6.138V24.743H9.68V28.58l2.459-2.263a4.734,4.734,0,0,1,3.2-1.574h.738a5.223,5.223,0,0,1,5.017,3.443l1.87-1.87a4.626,4.626,0,0,1,3.2-1.574h1.278c3.64-.049,5.952,2.656,5.952,6.247v13.92ZM44.7,36.7V39.2a2.435,2.435,0,0,0,2.459,2.459H57.737v3.247H47.506a6.075,6.075,0,0,1-6.247-6.246V30.991a6.075,6.075,0,0,1,6.247-6.247H54.1a6.047,6.047,0,0,1,6.247,6.247V36.7Zm12.2-6.1a2.436,2.436,0,0,0-2.459-2.459H47.161A2.436,2.436,0,0,0,44.7,30.6v2.951H56.9ZM74.46,44.911a6.075,6.075,0,0,1-6.247-6.246V30.991a6.1,6.1,0,0,1,6.247-6.247h3.787a5.2,5.2,0,0,1,3.542,1.574L84.15,28.58v-12.2h3.443V44.911Zm9.69-12.346-3.738-3.443a2.9,2.9,0,0,0-2.7-1.131H74.116a2.466,2.466,0,0,0-2.459,2.459V39.3a2.436,2.436,0,0,0,2.459,2.459H84.15ZM95.463,44.911V41.763h4.131V27.99H95.463V24.743h7.575V41.763h4.23v3.148ZM99.4,20.12V16.382h3.738V20.12Zm29.906,12.3V30.548a2.148,2.148,0,0,0-2.459-2.46h-6.788a2.436,2.436,0,0,0-2.46,2.46v8.558a2.436,2.436,0,0,0,2.46,2.459H130.83v3.345H120.4a6.128,6.128,0,0,1-6.246-6.346V30.991a6.075,6.075,0,0,1,6.246-6.247h6.1c3.985,0,6.247,2.164,6.247,5.952v1.721Zm24.152,12.494h-3.492a6.035,6.035,0,0,1-6.2-6.246V27.99h-4.132V24.743h4.132V16.382h3.443v8.361h4.919V27.99h-4.919V39.107a2.466,2.466,0,0,0,2.459,2.459H153.7a2.436,2.436,0,0,0,2.459-2.459v-1.87H159.7v1.427A6.047,6.047,0,0,1,153.456,44.911ZM169.049,36.7V39.2a2.436,2.436,0,0,0,2.46,2.459h10.575v3.247H171.852a6.075,6.075,0,0,1-6.246-6.246V30.991a6.075,6.075,0,0,1,6.246-6.247h6.592a6.047,6.047,0,0,1,6.246,6.247V36.7Zm12.2-6.1a2.436,2.436,0,0,0-2.459-2.459h-7.28a2.436,2.436,0,0,0-2.46,2.459v2.951h12.2Zm11.313,14.314V41.763h4.181V19.481h-4.181v-3.1h7.624V41.763h4.181v3.148Z" transform="translate(-6.138 -16.382)"/></svg>