<svg xmlns="http://www.w3.org/2000/svg" width="69.1" height="69.1" viewBox="0 0 69.1 69.1"><defs><style>.a{fill:#0c2352;}</style></defs><path class="a" d="M600.48,264.024a1.812,1.812,0,0,1-1.813-1.813V240.857a1.813,1.813,0,0,1,2.615-1.626l21.639,10.678a1.813,1.813,0,0,1,0,3.251l-21.639,10.678A1.811,1.811,0,0,1,600.48,264.024Zm7.121,22.06a34.55,34.55,0,1,1,24.431-10.12A34.324,34.324,0,0,1,607.6,286.084Zm0-65.765a31.215,31.215,0,1,0,22.072,9.143A31.011,31.011,0,0,0,607.6,220.319Z" transform="translate(-573.051 -216.984)"/></svg>