<svg xmlns="http://www.w3.org/2000/svg" width="25.896" height="21.057" viewBox="0 0 25.896 21.057"><defs><style>.a{fill:#0c2352;}</style></defs><path class="a" d="M83.235,119.457a15.021,15.021,0,0,0,15.119-15.119c0-.228,0-.456-.01-.684A10.825,10.825,0,0,0,101,100.9a10.769,10.769,0,0,1-3.057.839,5.346,5.346,0,0,0,2.342-2.943,10.57,10.57,0,0,1-3.378,1.285,5.315,5.315,0,0,0-9.192,3.637,5.874,5.874,0,0,0,.135,1.212,15.089,15.089,0,0,1-10.953-5.554,5.335,5.335,0,0,0,1.648,7.1,5.374,5.374,0,0,1-2.4-.663v.073a5.325,5.325,0,0,0,4.259,5.212,5.344,5.344,0,0,1-2.394.093,5.314,5.314,0,0,0,4.964,3.689,10.658,10.658,0,0,1-6.6,2.28,10.224,10.224,0,0,1-1.264-.073,15.115,15.115,0,0,0,8.135,2.373" transform="translate(-75.1 -98.4)"/></svg>